# xmcd
# 
# Track frame offsets:
#     182
#     17620
#     32225
#     52715
#     74657
#     111820
#     135387
#     150225
#     171942
#     197197
# 
# Disc length: 2979
# 
# Revision: 10
# Processed by: cddbd v1.5.2PL0 Copyright (c) Steve Scherf et al.
# Submitted via: fre:ac v1.0.31
# 
DISCID=7d0ba10a
DTITLE=Tom Waits - Blue Valentine
DYEAR=1978
DGENRE=Rock/Pop
TTITLE0=Somewhere (from West Side Story)
TTITLE1=Red Shoes by the Drugstore
TTITLE2=Christmas Card from a Hooker in Minneapolis
TTITLE3=Romeo Is Bleeding
TTITLE4=$29.00
TTITLE5=Wrong Side of the Road
TTITLE6=Whistlin' Past the Graveyard
TTITLE7=Kentucky Avenue
TTITLE8=A Sweet Little Bullet from a Pretty Blue Gun
TTITLE9=Blue Valentines
EXTD=
EXTT0=
EXTT1=
EXTT2=
EXTT3=
EXTT4=
EXTT5=
EXTT6=
EXTT7=
EXTT8=
EXTT9=
PLAYORDER=
